<?xml version="1.0" encoding="UTF-8" standalone="no"?>
<!DOCTYPE svg PUBLIC "-//W3C//DTD SVG 1.1//EN"
 "http://www.w3.org/Graphics/SVG/1.1/DTD/svg11.dtd">
<!-- Generated by graphviz version 2.43.0 (0)
 -->
<!-- Title: G Pages: 1 -->
<svg width="425pt" height="420pt"
 viewBox="0.00 0.00 425.00 419.97" xmlns="http://www.w3.org/2000/svg" xmlns:xlink="http://www.w3.org/1999/xlink">
<g id="graph0" class="graph" transform="scale(1.02 1.02) rotate(0) translate(4 422.47)">
<title>G</title>
<polygon fill="white" stroke="transparent" points="-4,4 -4,-422.47 427.57,-422.47 427.57,4 -4,4"/>
<!-- 0&#45;&#45;1 -->
<g id="edge1" class="edge">
<title>0&#45;&#45;1</title>
<path fill="none" stroke="#2e3436" d="M207.18,-196.59C187.68,-195.13 115.38,-251.02 112.18,-270.1"/>
</g>
<!-- 0&#45;&#45;1 -->
<g id="edge4" class="edge">
<title>0&#45;&#45;1</title>
<path fill="none" stroke="#2e3436" d="M211.71,-202.47C208.21,-221.7 135.87,-277.55 116.61,-275.83"/>
</g>
<!-- 0&#45;&#45;2 -->
<g id="edge2" class="edge">
<title>0&#45;&#45;2</title>
<path fill="none" stroke="#2e3436" d="M208.21,-201.43C200.24,-218.61 190.01,-302.13 193.56,-320.89"/>
</g>
<!-- 0&#45;&#45;3 -->
<g id="edge3" class="edge">
<title>0&#45;&#45;3</title>
<path fill="none" stroke="#2e3436" d="M207.95,-195.19C192.91,-187.16 126.82,-176.53 110.65,-179.59"/>
</g>
<!-- 1&#45;&#45;0 -->
<g id="edge5" class="edge">
<title>1&#45;&#45;0</title>
<path fill="none" stroke="#2e3436" d="M116.19,-271.58C131.08,-260.07 192.49,-212.63 207.61,-200.95"/>
</g>
<!-- 1&#45;&#45;3 -->
<g id="edge6" class="edge">
<title>1&#45;&#45;3</title>
<path fill="none" stroke="#2e3436" d="M115.36,-270.85C119.94,-256.46 116.3,-198.51 109.96,-184.59"/>
</g>
<!-- 1&#45;&#45;7 -->
<g id="edge7" class="edge">
<title>1&#45;&#45;7</title>
<path fill="none" stroke="#2e3436" d="M108.84,-275.07C90.9,-285.27 24.26,-355.25 15.19,-373.44"/>
</g>
<!-- 2&#45;&#45;0 -->
<g id="edge9" class="edge">
<title>2&#45;&#45;0</title>
<path fill="none" stroke="#2e3436" d="M198.29,-321.54C206.26,-304.36 216.5,-220.84 212.95,-202.08"/>
</g>
<!-- 2&#45;&#45;3 -->
<g id="edge8" class="edge">
<title>2&#45;&#45;3</title>
<path fill="none" stroke="#2e3436" d="M195.48,-320.53C189.22,-298.67 127.46,-198.75 110.73,-183.43"/>
</g>
<!-- 2&#45;&#45;9 -->
<g id="edge10" class="edge">
<title>2&#45;&#45;9</title>
<path fill="none" stroke="#2e3436" d="M191.55,-325.16C174.15,-333.14 108.96,-392.98 98.8,-410.22"/>
</g>
<!-- 3&#45;&#45;0 -->
<g id="edge14" class="edge">
<title>3&#45;&#45;0</title>
<path fill="none" stroke="#2e3436" d="M110.13,-184.73C125.16,-192.75 191.26,-203.39 207.42,-200.32"/>
</g>
<!-- 3&#45;&#45;1 -->
<g id="edge13" class="edge">
<title>3&#45;&#45;1</title>
<path fill="none" stroke="#2e3436" d="M104.66,-184.82C100.08,-199.21 103.72,-257.16 110.06,-271.08"/>
</g>
<!-- 3&#45;&#45;2 -->
<g id="edge11" class="edge">
<title>3&#45;&#45;2</title>
<path fill="none" stroke="#2e3436" d="M107.14,-185.68C113.39,-207.54 175.15,-307.45 191.88,-322.77"/>
</g>
<!-- 3&#45;&#45;8 -->
<g id="edge12" class="edge">
<title>3&#45;&#45;8</title>
<path fill="none" stroke="#2e3436" d="M103.07,-182.13C85.33,-190.26 18.39,-250.98 7.83,-268.44"/>
</g>
<!-- 4&#45;&#45;5 -->
<g id="edge15" class="edge">
<title>4&#45;&#45;5</title>
<path fill="none" stroke="#2e3436" d="M420.13,-107.77C417.07,-89.75 378.84,-18.47 365.46,-5.81"/>
</g>
<!-- 4&#45;&#45;6 -->
<g id="edge16" class="edge">
<title>4&#45;&#45;6</title>
<path fill="none" stroke="#2e3436" d="M416.11,-109.59C399.29,-105.28 326.31,-111.32 309.9,-118.34"/>
</g>
<!-- 5&#45;&#45;4 -->
<g id="edge17" class="edge">
<title>5&#45;&#45;4</title>
<path fill="none" stroke="#2e3436" d="M361.22,-8.01C364.28,-26.02 402.5,-97.3 415.88,-109.97"/>
</g>
<!-- 5&#45;&#45;6 -->
<g id="edge18" class="edge">
<title>5&#45;&#45;6</title>
<path fill="none" stroke="#2e3436" d="M357.95,-6.33C344.7,-21 308.53,-97.89 305.94,-116.97"/>
</g>
<!-- 6&#45;&#45;0 -->
<g id="edge20" class="edge">
<title>6&#45;&#45;0</title>
<path fill="none" stroke="#2e3436" d="M303.43,-123.73C288.91,-135.45 229.02,-183.78 214.28,-195.68"/>
</g>
<!-- 6&#45;&#45;4 -->
<g id="edge21" class="edge">
<title>6&#45;&#45;4</title>
<path fill="none" stroke="#2e3436" d="M310.08,-123.35C326.9,-127.66 399.88,-121.62 416.29,-114.6"/>
</g>
<!-- 6&#45;&#45;5 -->
<g id="edge19" class="edge">
<title>6&#45;&#45;5</title>
<path fill="none" stroke="#2e3436" d="M310.43,-118.83C323.68,-104.17 359.85,-27.27 362.44,-8.19"/>
</g>
<!-- 7&#45;&#45;1 -->
<g id="edge22" class="edge">
<title>7&#45;&#45;1</title>
<path fill="none" stroke="#2e3436" d="M18.57,-376.49C36.5,-366.3 103.15,-296.31 112.22,-278.12"/>
</g>
<!-- 7&#45;&#45;8 -->
<g id="edge23" class="edge">
<title>7&#45;&#45;8</title>
<path fill="none" stroke="#2e3436" d="M16.84,-373.79C21.16,-357.33 16.17,-290.71 9.44,-275.73"/>
</g>
<!-- 7&#45;&#45;9 -->
<g id="edge24" class="edge">
<title>7&#45;&#45;9</title>
<path fill="none" stroke="#2e3436" d="M16.18,-381.1C26.6,-391.73 78.74,-414.91 93.79,-415.64"/>
</g>
<!-- 8&#45;&#45;3 -->
<g id="edge27" class="edge">
<title>8&#45;&#45;3</title>
<path fill="none" stroke="#2e3436" d="M10.71,-272.18C28.45,-264.04 95.39,-203.32 105.95,-185.87"/>
</g>
<!-- 8&#45;&#45;7 -->
<g id="edge26" class="edge">
<title>8&#45;&#45;7</title>
<path fill="none" stroke="#2e3436" d="M4.32,-276.41C0,-292.87 4.99,-359.49 11.72,-374.47"/>
</g>
<!-- 8&#45;&#45;9 -->
<g id="edge25" class="edge">
<title>8&#45;&#45;9</title>
<path fill="none" stroke="#2e3436" d="M6.8,-276.84C13.46,-298.62 77.05,-397.61 94.07,-412.67"/>
</g>
<!-- 9&#45;&#45;2 -->
<g id="edge30" class="edge">
<title>9&#45;&#45;2</title>
<path fill="none" stroke="#2e3436" d="M101.71,-413.94C119.12,-405.96 184.3,-346.12 194.46,-328.88"/>
</g>
<!-- 9&#45;&#45;7 -->
<g id="edge28" class="edge">
<title>9&#45;&#45;7</title>
<path fill="none" stroke="#2e3436" d="M96.04,-410.83C85.62,-400.21 33.48,-377.02 18.43,-376.3"/>
</g>
<!-- 9&#45;&#45;8 -->
<g id="edge29" class="edge">
<title>9&#45;&#45;8</title>
<path fill="none" stroke="#2e3436" d="M97.63,-410.36C90.97,-388.58 27.37,-289.59 10.35,-274.53"/>
</g>
<!-- 0 -->
<g id="node1" class="node">
<title>0</title>
<ellipse fill="#a40000" stroke="#2e3436" cx="210.99" cy="-198.34" rx="4" ry="4"/>
</g>
<!-- 1 -->
<g id="node2" class="node">
<title>1</title>
<ellipse fill="#a40000" stroke="#2e3436" cx="112.93" cy="-274.1" rx="4" ry="4"/>
</g>
<!-- 2 -->
<g id="node3" class="node">
<title>2</title>
<ellipse fill="#a40000" stroke="#2e3436" cx="195.52" cy="-324.63" rx="4" ry="4"/>
</g>
<!-- 3 -->
<g id="node4" class="node">
<title>3</title>
<ellipse fill="#a40000" stroke="#2e3436" cx="107.09" cy="-181.57" rx="4" ry="4"/>
</g>
<!-- 4 -->
<g id="node5" class="node">
<title>4</title>
<ellipse fill="#a40000" stroke="#2e3436" cx="419.57" cy="-111.77" rx="4" ry="4"/>
</g>
<!-- 5 -->
<g id="node6" class="node">
<title>5</title>
<ellipse fill="#a40000" stroke="#2e3436" cx="361.77" cy="-4" rx="4" ry="4"/>
</g>
<!-- 6 -->
<g id="node7" class="node">
<title>6</title>
<ellipse fill="#a40000" stroke="#2e3436" cx="306.61" cy="-121.16" rx="4" ry="4"/>
</g>
<!-- 7 -->
<g id="node8" class="node">
<title>7</title>
<ellipse fill="#a40000" stroke="#2e3436" cx="14.48" cy="-377.47" rx="4" ry="4"/>
</g>
<!-- 8 -->
<g id="node9" class="node">
<title>8</title>
<ellipse fill="#a40000" stroke="#2e3436" cx="6.68" cy="-272.73" rx="4" ry="4"/>
</g>
<!-- 9 -->
<g id="node10" class="node">
<title>9</title>
<ellipse fill="#a40000" stroke="#2e3436" cx="97.74" cy="-414.47" rx="4" ry="4"/>
</g>
</g>
</svg>
